#define fill1_width 32
#define fill1_height 32
static unsigned char fill1_bits[] = {
   0x00, 0x02, 0x00, 0x02, 0x3f, 0xe2, 0x3f, 0xe2, 0x00, 0x02, 0x00, 0x02,
   0x00, 0x02, 0x00, 0x02, 0x00, 0x02, 0x00, 0x02, 0x02, 0x02, 0x02, 0x02,
   0x02, 0x00, 0x02, 0x00, 0x02, 0x00, 0x02, 0x00, 0x02, 0x00, 0x02, 0x00,
   0xe2, 0x3f, 0xe2, 0x3f, 0x02, 0x00, 0x02, 0x00, 0x02, 0x00, 0x02, 0x00,
   0x02, 0x00, 0x02, 0x00, 0x02, 0x02, 0x02, 0x02, 0x00, 0x02, 0x00, 0x02,
   0x00, 0x02, 0x00, 0x02, 0x00, 0x02, 0x00, 0x02, 0x1f, 0xe2, 0x3f, 0xe2,
   0x00, 0x02, 0x00, 0x02, 0x00, 0x02, 0x00, 0x02, 0x00, 0x02, 0x00, 0x02,
   0x02, 0x02, 0x02, 0x02, 0x02, 0x00, 0x02, 0x00, 0x02, 0x00, 0x02, 0x00,
   0x02, 0x00, 0x02, 0x00, 0xe2, 0x3f, 0xe2, 0x3f, 0x02, 0x00, 0x02, 0x00,
   0x02, 0x00, 0x02, 0x00, 0x02, 0x00, 0x02, 0x00, 0x02, 0x02, 0x02, 0x02,
   0x00, 0x02, 0x00, 0x02, 0x00, 0x02, 0x00, 0x02 };
